<svg xmlns="http://www.w3.org/2000/svg" width="200" height="40" viewBox="0 0 200 40" fill="none"><g clip-path="url(#clip0_25_91)"><path d="M11.1476 12.7344L10.9837 27.4033L7.7837 29.2C6.60369 29.876 5.27319 30.2458 3.91359 30.2755C2.55398 30.3053 1.20857 29.9942 9.15527e-05 29.3705L0.2296 10.5705V9.84917L0.255829 8.52458C0.270162 7.01591 0.681589 5.53763 1.44871 4.23847C2.21584 2.93932 3.3116 1.86512 4.62574 1.12396C5.93988 0.382807 7.42605 0.000835679 8.9347 0.0164839C10.4434 0.0321321 11.9213 0.444848 13.2198 1.2131L14.3017 1.86884C13.3316 2.68651 12.5506 3.70516 12.0128 4.85434C11.475 6.00352 11.1932 7.2558 11.187 8.52458L11.1476 11.9738V12.7344Z" fill="#6C52EE"></path><path d="M11.1476 12.7344L10.9837 27.4033L7.7837 29.2C6.60369 29.876 5.27319 30.2458 3.91359 30.2755C2.55398 30.3053 1.20857 29.9942 9.15527e-05 29.3705L0.2296 10.5705V9.84917L0.255829 8.52458C0.270162 7.01591 0.681589 5.53763 1.44871 4.23847C2.21584 2.93932 3.3116 1.86512 4.62574 1.12396C5.93988 0.382807 7.42605 0.000835679 8.9347 0.0164839C10.4434 0.0321321 11.9213 0.444848 13.2198 1.2131L14.3017 1.86884C13.3316 2.68651 12.5506 3.70516 12.0128 4.85434C11.475 6.00352 11.1932 7.2558 11.187 8.52458L11.1476 11.9738V12.7344Z" fill="url(#logo_home1)"></path><path d="M11.1476 12.7344L10.9837 27.4033L7.7837 29.2C6.60369 29.876 5.27319 30.2458 3.91359 30.2755C2.55398 30.3053 1.20857 29.9942 9.15527e-05 29.3705L0.2296 10.5705V9.84917L0.255829 8.52458C0.270162 7.01591 0.681589 5.53763 1.44871 4.23847C2.21584 2.93932 3.3116 1.86512 4.62574 1.12396C5.93988 0.382807 7.42605 0.000835679 8.9347 0.0164839C10.4434 0.0321321 11.9213 0.444848 13.2198 1.2131L14.3017 1.86884C13.3316 2.68651 12.5506 3.70516 12.0128 4.85434C11.475 6.00352 11.1932 7.2558 11.187 8.52458L11.1476 11.9738V12.7344Z" fill="url(#paint1_linear_25_91)"></path><path d="M31.6328 28.2951L14.5836 37.8623L13.9738 38.2098L12.7672 38.8656C11.4564 39.5973 9.97657 39.9724 8.47547 39.9536C6.97436 39.9347 5.50445 39.5225 4.21244 38.758C2.92043 37.9935 1.85151 36.9036 1.11235 35.597C0.373188 34.2903 -0.0103572 32.8127 -9.66327e-06 31.3115V30.0918C1.16749 30.6474 2.44472 30.9343 3.73769 30.9311C5.26714 30.9277 6.76958 30.5279 8.09835 29.7705L10.9705 28.1574L11.6262 27.7836L24.4065 20.5705L27.6852 22.5377C28.7306 23.1426 29.6276 23.9735 30.3106 24.9696C30.9936 25.9657 31.4453 27.1019 31.6328 28.2951Z" fill="#6C52EE"></path><path d="M31.6328 28.2951L14.5836 37.8623L13.9738 38.2098L12.7672 38.8656C11.4564 39.5973 9.97657 39.9724 8.47547 39.9536C6.97436 39.9347 5.50445 39.5225 4.21244 38.758C2.92043 37.9935 1.85151 36.9036 1.11235 35.597C0.373188 34.2903 -0.0103572 32.8127 -9.66327e-06 31.3115V30.0918C1.16749 30.6474 2.44472 30.9343 3.73769 30.9311C5.26714 30.9277 6.76958 30.5279 8.09835 29.7705L10.9705 28.1574L11.6262 27.7836L24.4065 20.5705L27.6852 22.5377C28.7306 23.1426 29.6276 23.9735 30.3106 24.9696C30.9936 25.9657 31.4453 27.1019 31.6328 28.2951Z" fill="url(#paint2_radial_25_91)"></path><path d="M31.6328 28.2951L14.5836 37.8623L13.9738 38.2098L12.7672 38.8656C11.4564 39.5973 9.97657 39.9724 8.47547 39.9536C6.97436 39.9347 5.50445 39.5225 4.21244 38.758C2.92043 37.9935 1.85151 36.9036 1.11235 35.597C0.373188 34.2903 -0.0103572 32.8127 -9.66327e-06 31.3115V30.0918C1.16749 30.6474 2.44472 30.9343 3.73769 30.9311C5.26714 30.9277 6.76958 30.5279 8.09835 29.7705L10.9705 28.1574L11.6262 27.7836L24.4065 20.5705L27.6852 22.5377C28.7306 23.1426 29.6276 23.9735 30.3106 24.9696C30.9936 25.9657 31.4453 27.1019 31.6328 28.2951Z" fill="url(#paint3_linear_25_91)"></path><path d="M32.6754 27.7049L32.2426 27.9475C32.0105 26.7107 31.515 25.5382 30.7897 24.5097C30.0645 23.4813 29.1265 22.6209 28.0393 21.9869L25.0689 20.223L24.4131 19.8426L11.8033 12.3607L11.8426 8.52459C11.8486 7.31007 12.1268 6.11233 12.6568 5.01951C13.1867 3.92669 13.9549 2.96658 14.9049 2.20984L31.7902 12.2164L32.4 12.5771L32.8459 12.8393C34.1419 13.6077 35.2128 14.7036 35.9511 16.0169C36.6893 17.3303 37.0689 18.8148 37.0516 20.3213C37.0343 21.8279 36.6208 23.3033 35.8526 24.5994C35.0845 25.8955 33.9887 26.9665 32.6754 27.7049Z" fill="#6C52EE"></path><path d="M32.6754 27.7049L32.2426 27.9475C32.0105 26.7107 31.515 25.5382 30.7897 24.5097C30.0645 23.4813 29.1265 22.6209 28.0393 21.9869L25.0689 20.223L24.4131 19.8426L11.8033 12.3607L11.8426 8.52459C11.8486 7.31007 12.1268 6.11233 12.6568 5.01951C13.1867 3.92669 13.9549 2.96658 14.9049 2.20984L31.7902 12.2164L32.4 12.5771L32.8459 12.8393C34.1419 13.6077 35.2128 14.7036 35.9511 16.0169C36.6893 17.3303 37.0689 18.8148 37.0516 20.3213C37.0343 21.8279 36.6208 23.3033 35.8526 24.5994C35.0845 25.8955 33.9887 26.9665 32.6754 27.7049Z" fill="url(#paint4_radial_25_91)"></path><path d="M32.6754 27.7049L32.2426 27.9475C32.0105 26.7107 31.515 25.5382 30.7897 24.5097C30.0645 23.4813 29.1265 22.6209 28.0393 21.9869L25.0689 20.223L24.4131 19.8426L11.8033 12.3607L11.8426 8.52459C11.8486 7.31007 12.1268 6.11233 12.6568 5.01951C13.1867 3.92669 13.9549 2.96658 14.9049 2.20984L31.7902 12.2164L32.4 12.5771L32.8459 12.8393C34.1419 13.6077 35.2128 14.7036 35.9511 16.0169C36.6893 17.3303 37.0689 18.8148 37.0516 20.3213C37.0343 21.8279 36.6208 23.3033 35.8526 24.5994C35.0845 25.8955 33.9887 26.9665 32.6754 27.7049Z" fill="url(#paint5_linear_25_91)"></path></g><path d="M54.1377 29.5082C51.7596 29.5082 49.8011 28.8699 48.2623 27.5934C46.741 26.3169 45.9803 24.6907 45.9803 22.7147H49.941C49.941 23.7289 50.3432 24.5595 51.1475 25.2065C51.9694 25.8535 53.0098 26.177 54.2688 26.177C55.3355 26.177 56.1836 25.9497 56.8131 25.4951C57.4426 25.0229 57.7574 24.4459 57.7574 23.7639C57.7574 23.1519 57.4688 22.671 56.8918 22.3213C56.3322 21.9541 55.624 21.7005 54.7672 21.5606C53.8929 21.4382 52.9574 21.2634 51.9606 21.0361C50.9639 20.8087 50.0284 20.5377 49.1541 20.2229C48.2973 19.9082 47.5803 19.3661 47.0033 18.5967C46.4437 17.8273 46.1639 16.8656 46.1639 15.7115C46.1639 13.8754 46.8721 12.3891 48.2885 11.2524C49.7049 10.0983 51.541 9.5213 53.7967 9.5213C56.0699 9.5213 57.941 10.1333 59.4098 11.3574C60.8787 12.5814 61.6131 14.1289 61.6131 16H57.7836C57.8011 15.0907 57.4426 14.3388 56.7082 13.7442C55.9738 13.1497 55.0382 12.8524 53.9016 12.8524C52.8699 12.8524 52.0306 13.071 51.3836 13.5082C50.7541 13.9279 50.4393 14.4699 50.4393 15.1344C50.4393 15.6415 50.6492 16.0524 51.0688 16.3672C51.506 16.682 52.0656 16.918 52.7475 17.0754C53.4295 17.2328 54.1902 17.3727 55.0295 17.4951C55.8514 17.635 56.6732 17.8186 57.4951 18.0459C58.3169 18.2732 59.0688 18.5705 59.7508 18.9377C60.4328 19.3049 60.9836 19.847 61.4033 20.5639C61.8404 21.2634 62.059 22.1202 62.059 23.1344C62.059 25.0055 61.3246 26.5355 59.8557 27.7246C58.4044 28.9136 56.4983 29.5082 54.1377 29.5082Z" fill="white"></path><path d="M65.6326 24.4983V18.4131H63.744V15.4229H65.8162L66.2621 12.0393H69.567V15.4229H72.6096V18.4131H69.567V24.1049C69.567 24.682 69.7244 25.1453 70.0391 25.4951C70.3714 25.8273 70.8085 25.9934 71.3506 25.9934C71.7528 25.9934 72.2162 25.9322 72.7408 25.8098L72.7145 28.9574C71.8752 29.2371 70.9834 29.377 70.0391 29.377C68.7102 29.377 67.6435 28.9224 66.8391 28.0131C66.0348 27.1038 65.6326 25.9322 65.6326 24.4983Z" fill="white"></path><path d="M82.9176 14.9246C83.4072 14.9246 83.9406 15.0382 84.5176 15.2656V18.7541C83.7132 18.4218 82.9788 18.2557 82.3143 18.2557C81.475 18.2557 80.793 18.5792 80.2684 19.2262C79.7438 19.8732 79.4815 20.7038 79.4815 21.718V28.8524H75.5471V15.4229H79.3242V17.1279C79.7264 16.4459 80.2422 15.9126 80.8717 15.5279C81.5012 15.1257 82.1832 14.9246 82.9176 14.9246Z" fill="white"></path><path d="M93.6904 26.3606C94.3898 26.3606 95.0193 26.1945 95.5789 25.8623C96.1384 25.53 96.5406 25.1016 96.7854 24.577L100.222 25.3377C99.8718 26.5093 99.0674 27.4798 97.8084 28.2492C96.5669 29.0011 95.1592 29.377 93.5854 29.377C91.4171 29.377 89.6423 28.6951 88.2608 27.3311C86.8794 25.9672 86.1887 24.2011 86.1887 22.0328C86.1887 19.9344 86.8794 18.2207 88.2608 16.8918C89.6423 15.5628 91.4171 14.8983 93.5854 14.8983C95.7363 14.8983 97.4761 15.5628 98.8051 16.8918C100.152 18.2207 100.825 19.9519 100.825 22.0852C100.825 22.6798 100.807 23.0732 100.772 23.2656L90.2543 23.2393C90.4291 24.1836 90.8226 24.9442 91.4346 25.5213C92.0466 26.0809 92.7986 26.3606 93.6904 26.3606ZM90.2281 20.8787H96.8379C96.7155 20.0218 96.3483 19.3136 95.7363 18.7541C95.1242 18.1945 94.3811 17.9147 93.5068 17.9147C92.6499 17.9147 91.933 18.1858 91.3559 18.7279C90.7789 19.2524 90.4029 19.9694 90.2281 20.8787Z" fill="white"></path><path d="M109.785 14.6885C110.974 14.6885 112.023 14.9333 112.932 15.4229C113.859 15.8951 114.576 16.577 115.083 17.4688C115.608 18.3432 115.87 19.3836 115.87 20.5901V28.8524H112.093V27.4623C111.603 28.0218 110.991 28.4503 110.257 28.7475C109.54 29.0273 108.797 29.1672 108.027 29.1672C107.048 29.1672 106.156 28.9836 105.352 28.6164C104.565 28.2492 103.944 27.7333 103.49 27.0688C103.035 26.3869 102.808 25.6175 102.808 24.7606C102.808 23.8688 103.061 23.0732 103.568 22.3738C104.076 21.6743 104.766 21.1322 105.641 20.7475C106.515 20.3453 107.485 20.1442 108.552 20.1442C109.706 20.1442 110.886 20.3803 112.093 20.8524V20.5901C112.093 19.7858 111.831 19.13 111.306 18.6229C110.782 18.0983 109.977 17.8361 108.893 17.8361C107.791 17.8361 106.602 18.1595 105.326 18.8065L104.014 16.2098C106.008 15.1956 107.931 14.6885 109.785 14.6885ZM108.893 26.4656C109.68 26.4656 110.379 26.2907 110.991 25.941C111.603 25.5912 111.971 25.1104 112.093 24.4983V23.2131C111.166 22.8634 110.17 22.6885 109.103 22.6885C108.403 22.6885 107.809 22.8809 107.319 23.2656C106.83 23.6328 106.585 24.0962 106.585 24.6557C106.585 25.1978 106.803 25.635 107.241 25.9672C107.678 26.2994 108.229 26.4656 108.893 26.4656Z" fill="white"></path><path d="M119.118 28.8524V15.4229H122.895V17.0229C123.769 15.6065 125.081 14.8983 126.829 14.8983C127.791 14.8983 128.657 15.1169 129.426 15.5541C130.195 15.9738 130.772 16.5508 131.157 17.2852C131.594 16.5508 132.215 15.9738 133.019 15.5541C133.841 15.1344 134.724 14.9246 135.669 14.9246C137.19 14.9246 138.431 15.4404 139.393 16.4721C140.355 17.4863 140.836 18.7978 140.836 20.4065V28.8524H136.901V21.1934C136.901 20.3891 136.665 19.7246 136.193 19.2C135.739 18.6579 135.144 18.3781 134.41 18.3606C133.658 18.3606 133.046 18.6229 132.574 19.1475C132.101 19.6721 131.865 20.3541 131.865 21.1934V28.8524H127.931V21.1934C127.931 20.3366 127.712 19.6546 127.275 19.1475C126.838 18.6229 126.252 18.3606 125.518 18.3606C124.766 18.3606 124.163 18.6229 123.708 19.1475C123.271 19.6546 123.052 20.3366 123.052 21.1934V28.8524H119.118Z" fill="white"></path><path d="M147.452 28.8524L142.757 15.4229H146.954L150.259 25.8623L153.537 15.4229H157.76L153.065 28.8524H147.452Z" fill="white"></path><path d="M164.171 15.4229V28.8524H160.237V15.4229H164.171ZM160.552 13.0098C160.132 12.5901 159.922 12.0568 159.922 11.4098C159.922 10.7628 160.132 10.2382 160.552 9.83605C160.989 9.41638 161.54 9.20654 162.204 9.20654C162.869 9.20654 163.411 9.41638 163.83 9.83605C164.267 10.2382 164.486 10.7628 164.486 11.4098C164.486 12.0568 164.267 12.5901 163.83 13.0098C163.411 13.4295 162.869 13.6393 162.204 13.6393C161.54 13.6393 160.989 13.4295 160.552 13.0098Z" fill="white"></path><path d="M178.092 17.0492V9.39015H182.026V28.8524H178.144V27.2262C177.025 28.6601 175.53 29.377 173.659 29.377C171.788 29.377 170.258 28.7038 169.069 27.3574C167.88 25.9934 167.285 24.2535 167.285 22.1377C167.285 20.0218 167.88 18.2907 169.069 16.9442C170.258 15.5803 171.788 14.8983 173.659 14.8983C175.512 14.8983 176.99 15.6153 178.092 17.0492ZM172.216 19.4885C171.552 20.188 171.219 21.071 171.219 22.1377C171.219 23.2044 171.552 24.0874 172.216 24.7869C172.881 25.4863 173.72 25.8361 174.734 25.8361C175.748 25.8361 176.588 25.4863 177.252 24.7869C177.917 24.0874 178.249 23.2044 178.249 22.1377C178.249 21.071 177.917 20.188 177.252 19.4885C176.588 18.7891 175.748 18.4393 174.734 18.4393C173.72 18.4393 172.881 18.7891 172.216 19.4885Z" fill="white"></path><path d="M188.155 1.5213H185.773V0.440643H191.785V1.5213H189.414V7.86884H188.155V1.5213Z" fill="white"></path><path d="M193.582 0.440643L195.786 6.94556L197.979 0.440643H199.29L196.73 7.86884H194.831L192.271 0.440643H193.582Z" fill="white"></path><defs><radialGradient id="logo_home1" cx="0" cy="0" r="1" gradientUnits="userSpaceOnUse" gradientTransform="translate(-2.3699 -27.8245) rotate(78.6274) scale(59.2657 23.6461)"><stop offset="0.286933" stop-color="#619BFF"></stop><stop offset="0.695365" stop-color="#CDDBF8" stop-opacity="0"></stop></radialGradient><linearGradient id="paint1_linear_25_91" x1="11.2538" y1="-6.03627" x2="5.59009" y2="-4.96974" gradientUnits="userSpaceOnUse"><stop stop-color="#9E61FF"></stop><stop offset="0.793333" stop-color="#8E61FF" stop-opacity="0"></stop></linearGradient><radialGradient id="paint2_radial_25_91" cx="0" cy="0" r="1" gradientUnits="userSpaceOnUse" gradientTransform="translate(-5.24225 2.73744) rotate(55.2184) scale(45.3127 43.8171)"><stop offset="0.286933" stop-color="#619BFF"></stop><stop offset="0.695365" stop-color="#CDDBF8" stop-opacity="0"></stop></radialGradient><linearGradient id="paint3_linear_25_91" x1="24.8913" y1="16.6937" x2="15.7745" y2="22.6219" gradientUnits="userSpaceOnUse"><stop stop-color="#9E61FF"></stop><stop offset="0.793333" stop-color="#8E61FF" stop-opacity="0"></stop></linearGradient><radialGradient id="paint4_radial_25_91" cx="0" cy="0" r="1" gradientUnits="userSpaceOnUse" gradientTransform="translate(7.61918 -21.4688) rotate(67.3389) scale(53.5505 39.2947)"><stop offset="0.286933" stop-color="#619BFF"></stop><stop offset="0.695365" stop-color="#CDDBF8" stop-opacity="0"></stop></radialGradient><linearGradient id="paint5_linear_25_91" x1="31.6712" y1="-2.9377" x2="22.6899" y2="0.572973" gradientUnits="userSpaceOnUse"><stop stop-color="#9E61FF"></stop><stop offset="0.793333" stop-color="#8E61FF" stop-opacity="0"></stop></linearGradient><clipPath id="clip0_25_91"><rect width="37.0492" height="40" fill="white"></rect></clipPath></defs></svg>